<?xml version="1.0" encoding="UTF-8" standalone="no"?>
<svg id="svg4326" xmlns:rdf="http://www.w3.org/1999/02/22-rdf-syntax-ns#" xmlns="http://www.w3.org/2000/svg" height="319.8mm" width="268.48mm" version="1.1" xmlns:cc="http://creativecommons.org/ns#" xmlns:dc="http://purl.org/dc/elements/1.1/" viewBox="0 0 951.30594 1133.1417">
<g id="layer1" transform="translate(214.49 175.64)">
<g id="g4297" transform="matrix(2.306 0 0 2.306 -640.5 -279.54)">
<path id="path4238" d="m553.8 65.326c-5.0224 0.51631-7.5266 5.8393-8.6367 10.172-1.8066 6.5631-0.88041 13.451 0.75195 19.939 0.36545 1.0814-1.2787 2.5114-1.6465 0.77539-2.79-4.7706-3.8553-10.378-4.0039-15.797-0.13424-2.5969-0.68987-6.5504-4.0215-6.6777-3.2354-0.1755-4.1859 3.7001-4.5938 6.209-1.1911 7.2361-0.37408 14.998 3.6367 21.283 1.5391 3.1263 4.7974 6.3679 3.4785 10.115-0.21791 0.71556-1.519 2.4538-1.6465 0.8086-1.8066-6.9024-7.8517-11.611-13.92-14.592-3.1048-1.7099-6.6753-4.296-6.6738-8.3027-0.20335-4.2299-6.7859-4.7176-8.3789-1.1172-2.207 4.1213 0.54185 8.5517 1.4121 12.637 2.9128 9.4002 5.5788 18.905 9.0254 28.123 1.8768 2.3432 5.3565 2.1001 7.7188 3.7754 6.0333 2.6847 9.2637 8.7083 14.061 12.887 2.9528 2.583 7.702 3.6736 10.934 0.94336 8.1742-6.3152 15.746-13.414 22.957-20.805 8.2688-8.6764 15.641-18.691 19.17-30.271 1.1284-3.2543-0.43215-7.5578-4.0645-8.2656-3.9343-0.83124-7.4427 1.649-9.9121 4.4512-1.3848 1.3001-2.8135 3.2931-4.2832 4.125-1.0015-2.7174 1.2994-5.2635 2.2188-7.6934 2.016-4.233 4.5966-8.2563 6.0879-12.709-0.22485-4.5949-5.5197-7.9156-9.7988-6.1914-5.826 2.006-8.9039 7.8438-12.555 12.367-1.7401 2.3859-3.415 4.8196-5.0254 7.2949 0.26176-6.1433 1.8385-11.873 3.8027-17.662 0.50186-3.2715-3.1223-5.8567-6.0938-5.8223zm-1.5274 51.158c0.43705 1.4775-0.68794 3.3736-1.209 4.8691-2.5734 5.7658-5.9197 11.547-9.6641 16.598-0.7896-2.067 1.0299-4.1651 1.7441-6.0508 2.7718-5.0811 4.9267-10.535 8.4824-15.119 0.17546-0.16313 0.38824-0.343 0.64648-0.29687zm-41.074 29.918c-0.11963 0.00055-0.2406 0.025-0.36329 0.0879-6.6705 2.4188-14.056 5.411-17.598 12.014-2.3948 4.9832-1.8566 12.085 3.1484 15.291 2.9084 1.7227 6.2666 3.2524 7.5781 6.6445 1.1427 1.4175 0.003 1.3582-1.1621 0.9668-3.7263-0.91116-6.8775-3.3148-9.3652-6.1621-1.8044-1.3915-3.1109 1.0896-2.5664 2.6934 0.25864 6.1861-1.1892 12.635-4.043 18.135-0.0383-1.9413 1.9491-4.0728 0.38477-5.7637-1.5092-0.80499-2.9164 0.80278-4.1699 1.2539 2.3607-6.2507 3.8186-13.847 0.2871-19.945-2.6812-3.8777-7.3583-6.2417-12.096-5.6973-3.6598-0.0451-6.5478 2.7471-7.7891 5.998-3.8285 7.7687-15.865 10.397-21.902 3.7422-4.3151-4.6968-4.9705-12.349-1.5645-17.711 0.41903-2.849-3.1975-4.4182-5.5625-3.5-3.5508 0.85677-6.1687 3.7384-7.377 7.0977-3.482 7.3826-4.0849 15.922-2.6465 23.885 1.1632 5.936 3.795 11.484 7.3379 16.359 3.204 5.4327 1.5541 11.993 1.5644 17.938-0.39629 5.5801 0.35006 11.854 4.7285 15.832 6.0506 5.4836 14.442 6.9225 22.068 8.9824 9.2636 2.1858 19.035 3.9536 28.436 1.4863 10.103-2.3635 17.588-10.588 22.393-19.383 9.7037-17.345 18.6-34.787 27.572-52.523 0.56478-1.8549 2.7141-3.9381 1.4336-5.8633-2.4397-1.3626-4.7907-1.708-7.0039-3.5957-7.4414-5.3423-13.166-12.702-20.652-17.984-0.36195-0.0627-0.71142-0.27899-1.0703-0.27735zm-112.72 4.8672c-4.3594 0.97024-6.9496 5.1375-10.412 7.627-10.578 8.5145-24.974 12.357-38.602 11.52-16.048-0.88308-31.049-7.4868-44.518-15.73-1.6859-1.0611-2.9711 1.07-2.4785 2.5976 0.47609 12.783 0.92277 25.58 1.8457 38.336 0.89591 3.1137 4.5281 3.4329 7.2109 3.0078 24.424-1.714 48.868-3.2468 73.252-5.4746 4.5858-0.153 8.3577-4.1236 8.8106-8.6016 2.4657-10.445 5.0056-20.885 7.0606-31.418 0.0889-1.1704-1.0917-1.9718-2.1699-1.8633zm-137.07 13.852c-2.5814-0.0276-4.928 1.6128-5.9629 3.9492-0.75135 1.2946-2.6342 3.1663-0.79297 4.3809 1.4314 1.3144 3.3663 1.4409 5.1836 1.6465 4.8367 1.5308 6.8845 7.5312 5.5606 12.121-1.7262 5.4489-6.5068 9.1193-10.752 12.6-4.5877-4.9479-9.0895-10.004-14.025-14.607-2.7275-2.381-6.7243-3.6522-10.168-2.0898-4.6691 2.1964-8.5509 5.732-12.453 9.0449-4.2342 3.8996-8.5487 7.8623-11.791 12.652-1.3075 1.7685-0.53692 4.3884 1.4746 5.2246 4.3517 2.6087 9.0862 4.577 13.34 7.248 0.37628 1.246-0.72613 2.4719-2.0039 2.1445-3.1147-0.53261-4.9056-3.5234-7.3574-5.2246-3.9241-3.2667-9.9093-2.1363-13.578 0.9707-5.0697 4.0063-6.482 10.693-7.457 16.736-1.3155 7.2773-0.99631 14.721-0.8125 22.076 0.23592 3.4355 0.75114 6.864 1.5586 10.209 0.62182 1.4184 2.6616 1.0112 3.0781-0.36328 3.6217-6.1819 7.9459-11.975 13.111-16.916 4.0556-3.9987 8.2422-8.1668 13.379-10.873 2.6824-1.3236 6.1155-0.68057 7.9785 1.7051 3.25 3.4365 5.6101 8.3536 10.51 9.709 2.7759 1.0811 6.1918 0.0856 7.6816-2.5644 1.7062-3.1599 0.64465-7.0188 1.9727-10.273 0.673-0.94775 1.9331-2.4195 3.2246-1.8164 1.1104 1.6219-0.008 3.7006-0.60743 5.334-1.421 3.7374-4.0051 7.1337-4.4238 11.191-0.32604 3.4408 1.7338 6.8153 4.9024 8.1621 4.3394 2.0054 9.4838 0.6539 13.107-2.2031 4.9575-3.7926 9.1804-9.0466 10.598-15.227 0.92702-3.7152-0.12855-7.5783-2.043-10.799-2.7857-5.5344-2.9274-12.26-0.81836-18.041 0.86873-2.7124 3.035-5.0491 2.9277-8.0274-1.2363-8.8723-2.7124-17.714-4.2344-26.541-0.7145-4.0994-2.1586-8.7864-6.2598-10.67-1.2568-0.59814-2.6537-0.91076-4.0469-0.86914zm167.84 78.979c-0.23387-0.003-0.46706 0.005-0.70117 0.0215-6.5833 0.47484-12.979 2.3004-19.475 3.3809-41.313 7.8129-83.154 12.741-125.13 14.775-3.3268-0.0588-5.4605 3.2373-5.8477 6.2188-0.99442 7.3176-0.5703 14.742-0.35937 22.1 0.56081 8.2853 1.4931 16.587 3.3496 24.689 1.6036 6.4014 5.3343 12.941 11.768 15.439 2.4106 1.055 5.0657 1.2686 7.6445 0.8418 7.3682-0.46126 14.821 0.25155 21.873 2.4961 9.4028 2.9193 18.142 8.0453 25.291 14.812 7.6132 7.1229 13.462 16.182 16.354 26.197 0.73991 2.6364 2.6796 5.0309 5.4844 5.543 4.389 1.2758 9.0683-1.1096 11.514-4.7793 3.4016-5.0461 5.1223-10.992 8.1602-16.246 7.8785-14.482 19.795-26.634 33.893-34.943 3.7824-2.3238 7.9967-3.8692 11.684-6.3809 4.0901-3.454 5.2308-9.1506 5.5078-14.244 0.13593-10.536 0.11442-21.095-0.60937-31.611-0.69094-7.5482-1.1839-15.148-2.5918-22.604-0.89466-3.5372-4.2965-5.6671-7.8047-5.707zm-199.61 2.6152c-5.5252 0.21333-9.7893 4.5069-12.852 8.709-6.1448 8.4042-11.919 17.152-16.461 26.537-1.8677 4.0792-3.0411 9.3737-0.18359 13.295 2.5945 3.2571 6.8596 4.3584 10.408 6.2207 3.3362 1.4253 7.169 3.6969 10.844 2.0762 2.697-1.2852 4.091-5.4412 1.6445-7.6094-1.4068-1.0182-2.2822-3.0747-1.4297-4.6094 3.4441 0.71806 6.407 3.9904 10.152 2.9238 3.9924-1.302 5.7829-7.2708 2.3613-10.109-2.7441-2.4254-6.8112-2.3134-9.6543-4.5137-0.65377-0.64261-1.2957-1.4687-1.2891-2.4297 2.6597-0.071 5.2736 0.4781 7.8223 1.2344 3.0668 0.76902 7.212 0.0966 8.5156-3.166 1.1314-3.2204-1.4973-6.5014-4.498-7.4492-2.3037-1.0877-5.1896-1.0849-7.0918-2.9062-0.82543-0.8157-1.7235-2.6132-0.34375-3.3574 2.8568-0.37542 5.2697 1.8725 8.082 2.0801 3.302 0.63228 6.9022-0.92775 8.6387-3.7891-0.4222-2.6455-2.3376-4.8017-3.877-6.9238-2.6106-3.316-6.3398-6.3411-10.789-6.2129zm156.88 24.969c3.0318 0.0749 6.3831 2.0973 6.2812 5.4395-0.25555 6.0375-1.045 12.065-1.7852 18.078-0.4638 2.0422-1.1432 4.6336-3.2793 5.4902-2.9995-0.97182-3.9872-4.3744-4.5527-7.1562-1.2304-6.0029-2.5017-12.115-2.7012-18.283 0.006-1.0989 0.0359-2.4256 0.71875-3.2871 1.5591-0.2072 3.1454-0.24591 4.7168-0.26953 0.19816-0.0125 0.39945-0.0167 0.60157-0.0117zm-48.984 1.9824c3.0603 0.17681 6.2519 0.16643 9.2734 0.91015 0.84817 0.64907 0.40446 2.067 0.61914 2.9922 0.19341 6.0484 0.68624 12.079 0.23437 18.119-0.36337 3.0666-2.8649 6.2341-6.207 5.8262-2.2881-0.16328-3.0349-2.833-3.1484-4.7363-0.95104-7.5998-1.9472-15.27-2.4727-22.908 0.53015-0.22408 1.1356-0.184 1.7012-0.20312zm63.383 35.186c1.3691-0.0109 2.7391-0.0111 4.1113 0.002l1.0274 0.5039c2.6238 0.97639 2.1851 4.5944 0.67773 6.3555-2.7548 3.2106-7.4184 3.0665-11.209 3.6133-17.433 1.6825-35.232 2.1433-52.34 6.4766-1.6312 0.54098-3.7137 0.46278-4.6348-1.2422-1.583-2.4466-0.92452-5.4708-1-8.2031 11.258-3.5409 23.023-4.6381 34.715-5.8809 9.5559-0.90618 19.069-1.5484 28.652-1.625zm53.334 30.393c-0.4507 0.0241-0.91053 0.24701-1.2129 0.60352-3.0236 5.2918-0.90058 11.564 0.81836 16.893 1.2501 4.187 2.7846 9.5888-0.6211 13.195-3.2394 3.205-8.0456 3.8106-12.082 5.5625-7.3704 2.3275-14.583 5.6224-22.35 6.3496-5.6214 0.59979-11.791-1.788-14.455-7-1.4478-1.6472-0.14446-4.3447-1.7969-5.748-1.8461-0.79545-3.6021 1.107-5.3125 1.6504-4.8061 2.2999-9.2758 6.9042-8.8516 12.602 0.45133 4.3751 4.5041 7.0649 6.9434 10.365 7.0497 8.0476 12.155 17.489 16.988 26.996 2.3675 4.9088 6.7837 10.031 12.729 9.7695 7.3211-0.394 13.988-3.8804 20.879-6.041 9.1606-3.4085 18.482-6.4623 27.449-10.35 3.5835-2.1181 7.8113-5.6526 6.8066-10.342-1.7637-7.7551-4.8314-15.153-7.3828-22.672-5.0943-14.021-10.874-27.85-17.385-41.24-0.27076-0.44278-0.71336-0.61789-1.1641-0.59375zm-10.061 1.4082c-7.4046 0.6468-13.965 4.6709-20.248 8.3359-5.6829 3.7676-11.884 7.2393-16.1 12.736-3.0857 3.9644-2.2495 10.027 1.5859 13.191 3.417 3.2885 8.4209 3.7806 12.902 3.0801 6.9755-0.92442 13.521-3.752 20.166-5.9316 3.634-1.462 8.6501-2.5897 9.7715-6.959 0.89738-4.1698-0.94442-8.3346-1.5606-12.424-1.0555-3.6566-1.126-7.871-3.5059-10.99-0.77334-0.8087-1.9215-1.098-3.0117-1.0391zm-156.8 9.8086c-4.5421 0.63734-6.779 5.1716-8.5957 8.8535-6.0086 12.272-11.325 24.919-15.555 37.916-1.3466 4.4154-2.5548 9.9315 0.875 13.752 3.8678 4.4722 10.235 4.8605 15.555 6.4219 14.828 3.5276 29.624 7.2313 44.479 10.621 3.9526 0.28195 8.8102 0.6314 11.484-2.9453 4.239-5.7055 6.7623-12.461 9.9902-18.75 2.8785-6.4204 6.2935-12.677 8.291-19.445 1.0701-4.4796 0.76491-10.08-3.3086-13.006-3.5179-2.6642-8.4826-0.79345-11.008 2.3672-3.6145 3.5714-5.2698 9.2105-10.104 11.453-5.4472 1.5912-10.448-2.1734-15.168-4.293-6.9948-3.6533-14.211-6.9592-20.92-11.117-2.5009-2.065-5.8724-4.9767-4.4688-8.627 1.1734-3.4143 4.1922-7.0801 2.3125-10.807-0.90794-1.191-2.2847-2.3866-3.8594-2.3945zm16.412 2.6191c-4.105-0.0751-9.2138 0.60126-11.072 4.8711-2.0093 4.4647 0.24128 9.9358 4.0938 12.668 5.4 3.8139 11.596 6.3315 17.414 9.4297 4.2937 1.7659 8.3684 5.0753 13.234 4.7598 4.9583-0.67957 7.1798-5.8828 9.6035-9.6035 1.4985-2.5948 4.6192-5.0468 3.4785-8.4043-1.2211-4.6061-6.3428-6.157-10.131-8.0527-8.3658-3.6559-17.471-5.7514-26.621-5.668zm136.74 1.6934c1.6949 0.1597 1.9106 2.109 0.9336 3.2031-0.66952 1.0507-2.1948 2.1446-3.0977 2.1719 0.04-1.9696 0.0903-4.5413 2.1641-5.375zm-15.639 5.2168c2.3182 0.58816 2.0787 3.8925 0.87305 5.4297-0.44701 0.97251-1.152 1.9541-1.7344 0.55274-1.1265-1.6702-1.3816-4.7086 0.46875-5.9375 0.12624-0.0398 0.26073-0.054 0.39258-0.0449zm-114.69 0.79883c0.58855 2.8661-0.94473 6.1473-3.6816 7.2031-0.19958-2.7839 0.28321-6.52 3.6816-7.2031zm15.523 5.4609c-0.025 0.47591-0.0492 0.95182-0.0742 1.4277-0.25113 1.7342-0.12486 4.0781-1.5703 5.2969-1.037 0.45589-2.0427-0.32882-1.3887-1.4219 0.42986-1.9304 0.80648-4.7299 3.0332-5.3027zm156.85 87.785c-0.58342-0.0338-1.2141 0.0477-1.6934 0.008-6.6741 0.5675-12.263 4.7614-18.674 6.3691-7.9206 2.4344-16.176 2.9141-24.334 1.998-3.8181-0.35317-7.5833-1.8532-11.447-2.0781-3.5519 1.0802-3.8897 5.4731-4.3086 8.5742-0.52151 5.8175-1.5313 11.681-1.0918 17.527 0.53382 5.2425 5.1942 8.7088 9.7773 10.447 8.7408 3.5566 18.109 5.533 27.498 6.2383 5.2371-0.14688 10.623 0.51487 15.75-0.77734 3.5109-1.0586 3.7559-5.2385 3.8926-8.2812 0.37745-7.6622 5.6231-13.978 6.6406-21.518 1.0953-5.8679 1.0728-12.114-0.60351-17.822-0.28736-0.50344-0.82283-0.65175-1.4062-0.68554zm-153.74 3.959c-0.23111-0.0125-0.46775-0.0111-0.70899 0.006-0.10647-0.002-0.2119-0.003-0.31836 0-8.5135 0.69238-16.962 2.1503-25.504 2.6055-9.5805 0.79615-19.199 0.73961-28.773 1.1992-1.9862 0.86406-1.0589 3.6486-1.4297 5.4199-0.15072 5.6389 0.91185 12.075 5.7871 15.619 3.5105 2.613 7.6832 4.5435 10.131 8.3555 2.6663 3.6223 4.1208 8.0698 3.8652 12.578 0.19881 2.4482-0.45045 6.2014 2.5762 7.1641 3.3773 1.175 6.7005-1.0035 9.9805-1.5918 8.76-2.6269 17.635-4.9474 26.25-8.0176 4.7135-1.9072 9.5173-6.1382 8.8652-11.707-0.85559-8.358-2.7086-16.592-4.4746-24.797-0.47416-3.2563-2.7794-6.6466-6.2461-6.834zm173.47 12.729c-6.0092 0.13097-12.338 2.145-15.881 7.2793-3.3797 4.8525-5.3528 10.648-6.252 16.461-0.60576 3.2004 1.6196 6.5415 4.9219 6.8848 9.4828 1.0747 19.065 0.91183 28.596 1.1953 6.2415-0.13466 13.431 0.69879 18.596-3.5625 3.8289-3.094 5.5292-9.3403 2.0449-13.322-7.095-9.5512-18.938-15.264-30.828-14.936-0.39686-0.008-0.79665-0.009-1.1973 0zm-243.71 11.02c-5.422 0.10242-10.625 2.5453-14.908 5.7559-6.0431 4.7622-11.21 11.463-11.908 19.354-0.26749 4.216 4.1057 6.8209 7.8691 6.9024 11.63 0.80742 23.307 0.66947 34.959 0.91992 3.3935 0.0883 7.1875 0.18683 9.832-2.3301 4.6054-3.6691 5.8002-10.482 3.2441-15.691-3.683-7.9023-11.86-13.118-20.258-14.686-2.5686-0.28696-5.1628-0.19867-7.7422-0.21289-0.3632-0.0144-0.72642-0.0186-1.0879-0.0117zm163.65 13.76c-2.245 0.6255-1.5359 3.5526-1.7793 5.332 0.58119 5.861 5.8894 10.097 11.299 11.52 12.154 2.7966 24.613 4.1135 37.029 5.125 11.076 0.93803 22.187 1.2042 33.299 1.0098 8.6161-0.22432 17.297 0.30557 25.867-0.74414 5.612-0.80653 10.677-6.1923 9.6035-12.055-0.20444-1.7987-1.4716-3.9207-3.582-3.3144-6.5844 1.5328-13.321 2.9106-20.027 2.75-10.361-0.0468-20.793-1.5957-31.207-0.36133-10.475 0.99158-21.159 3.1696-31.502 0.9043-9.8934-1.7704-18.919-6.3678-28.201-10.055-0.25913-0.075-0.52698-0.13187-0.79883-0.11133zm-80.65 4.1523c-0.22437-0.006-0.44023-0.002-0.64258 0.01-5.1564 0.50423-9.7431 3.2952-14.572 4.9766-26.357 10.522-55.433 14.477-83.592 11.576-2.3956 0.0205-4.9283-1.107-7.2539-0.34765-3.1837 2.2614-2.7054 7.2878-0.51172 10.098 3.2939 4.3251 9.1708 4.8295 14.188 4.7539 20.861 0.61325 41.55-3.4763 61.598-8.8984 8.7662-2.665 17.872-4.7674 25.939-9.248 3.8216-2.3608 7.4531-5.9444 8.3516-10.488 0.0106-1.8568-1.9333-2.3904-3.5039-2.4316z" fill="#5F8DD3"/>
<path id="path4268" d="m345.29 48.482c-25.725 0.26304-50.832 17.43-59.521 41.746 0.17689 3.1571 4.3282 2.2864 5.7012 0.4707 28.813-17.401 66.003-21.161 97.156-7.9258 3.2472 1.3361 5.9458 3.5765 8.334 6.123-10.024-8.7162-24.259-11.781-37.213-13.133-3.8505-0.34776-7.7184-0.50299-11.584-0.47461-24.266 0.3908-48.923 8.5999-67.203 24.832-5.6194 4.8357-7.1831 12.737-5.5156 19.738 1.1468 4.1187 1.8082 8.9613 4.7773 12.203 2.8575 2.2126 6.4299-0.13741 7.2168-3.1992 0.29367 2.418 1.6337 5.1624 2.2188 7.002 5.7114 10.791 16.397 17.948 26.842 23.668 20.079 10.677 45.586 12.247 65.699 0.79102 9.0243-5.1568 17.476-12.377 22.078-21.846 1.2126-2.5097 0.24318-6.9847-3.2871-6.3086-2.8775 1.3732-3.8172 5.1789-6.6426 6.8184-12.902 10.776-30.483 12.864-46.637 14.117-14.744 0.77978-30.764-1.3197-42.152-11.574-5.8755-4.8097-9.7532-11.484-14.885-16.914-0.39666-0.14779-0.85496-0.25618-1.2715-0.17188-0.7811 0.39722-1.2962 0.93282-1.6113 1.5625 0.41899-6.1514-0.87856-12.435 0.81836-18.438 4.1067-8.486 14.678-9.5802 22.543-12.637 22.531-7.4282 47.785-12.144 70.602-3.4316 5.7507 1.7988 10.325 6.2545 16.217 7.6113 2.6975 0.80171 6.2225-2.0129 4.123-4.7266-0.19859-0.26349-0.40481-0.51728-0.60938-0.77344 2.0878 0.84596 5.0323-0.1484 4.4394-2.875-2.513-8.1834-7.6571-15.477-13.438-21.74-12.13-12.773-29.477-20.745-47.195-20.516z" fill="#fff"/>
<path id="path66" d="m337.59 210.63c-14.588 1.7953-29.296 3.2635-43.646 6.4238-4.2038 3.1235-1.9867 8.9644-2.4199 13.293 0.55506 6.8939 6.2313 14.586 13.867 13.288 11.835-1.3879 23.827-0.37845 35.703-0.68832 7.1833-1.4427 11.026-9.6535 9.0726-16.406-1.0588-5.1765-2.4049-11.227-6.8285-14.555-1.7284-1.0072-3.7608-1.4174-5.748-1.3555zm66.627 3.0391c-4.814-0.3144-9.0104 5.2792-6.1211 9.5488 1.8239 3.7571 7.0906 4.1123 9.8164 1.1465 2.6632-1.6529 4.6154-5.2537 2.1836-7.9727-1.3263-1.8619-3.6295-2.805-5.8789-2.7226zm-31.953 1.7324c-5.7925 0.61621-7.135 8.8186-4.3242 13.021 1.5935 3.0268 5.1243 1.0823 6.6934-0.87696 3.7054-2.8893 4.2867-9.6727-0.52734-11.752-0.57724-0.2568-1.2091-0.40208-1.8418-0.39258z" fill="#019647"/>
<path id="path6" class="st0" fill="#585a62" d="m414.3 102.2c0.5 5.3 0.8 10.7 0.6 16-0.1 2.8-0.3 5.8-2.1 8s-5.5 2.9-7.3 0.8c-1.1-1.4-1-3.4-0.9-5.2 0.5-6.8 1.1-13.5 1.6-20.3 0.2-2.3 0.8-5.1 3-5.7 3-0.7 4.8 3.3 5.1 6.4z"/>
<g>
<path id="path8" d="m421.03 75.926c-5.2792 0.00006-12.862 0.21076-14.908 6.2129-1.4294 3.5475 0.92177 7.5582 4.7179 8.1776 9.2963 4.7137 19.501 7.8355 28.173 13.678 8.1992 7.223 7.7456 19.239 7.2958 29.166 0.0815 5.8426-0.73957 12.415 2.4152 17.625 2.0834 3.3523 8.4502 2.338 7.9824-2.0918-1.5772-17.895-2.543-35.878-4.7377-53.708-0.91486-7.9805-6.5802-15.155-14.438-17.226-5.319-1.6725-10.966-1.8993-16.5-1.834zm-140.12 7.4883c-10.223 2.0727-20.572 3.943-30.609 6.8223-7.0999 2.0616-10.93 9.3824-11.074 16.396-0.39505 21.555 1.5503 43.115 3.8941 64.528-0.13598 2.7887 2.7922-0.24019 3.475-1.598 3.141-7.0899 0.40459-15.092-0.0214-22.452-1.5005-10.916-1.8508-23.908 6.6347-32.335 9.2446-9.3568 24.562-11.904 30.963-24.178 2.1109-3.0843 1.1243-7.5255-3.2617-7.1836zm137.76 41.121c-2.509 0.0497-1.4792 4.0069-3.6445 5.2852-2.3401 3.3564-8.8919 1.5231-9.9609 5.9961 0.26731 2.0612 3.8138 1.3309 5.6055 1.8633 3.6141 0.11694 9.6639 1.2518 10.834-3.4629 0.59666-2.9287-0.80307-5.9668 0.24219-8.8438-0.92792-0.55151-1.9859-0.9072-3.0762-0.83789zm-142.21 11.74c-5.76-0.18054-8.1483 6.5152-9.0312 11.178-0.54023 3.1705-0.12674 6.4133 0.73242 9.4883 3.3663-6.551 7.9784-14.755 16.248-15.125 1.9351-0.31699 4.7415 2.0251 5.8164-0.72266 1.4922-3.2667-2.687-5.0323-5.3164-4.7246-2.8168-0.00098-5.6324-0.12087-8.4492-0.0937zm137.13 5.2559c-6.1989-0.15348-10.513 5.5894-11.008 11.34-2.2438 13.088-4.3965 26.193-6.629 39.283 6.9459-0.63808 14.151 0.382 20.965-1.1406 4.0955-2.3844 3.1841-8.2045 4.5583-12.089 1.3698-9.1889 4.1732-18.447 3.2171-27.799-0.64445-5.5455-5.4094-9.9551-11.104-9.5938zm-126.21 5.1621c-8.7968 0.21333-14.621 9.1189-14.631 17.299-0.77803 12.837 7.2749 24.846 4.5202 37.629 6.7818 1.2667 15.946 2.1252 20.223-4.6211 4.102-7.5462 1.7768-16.613 2.4394-24.771-0.17176-7.8794 1.2478-17.884-5.6738-23.493-1.9517-1.4788-4.4486-2.1322-6.877-2.043zm125.31 48.275c-43.295 0.68356-86.594 4.242-129.31 11.357-4.8188 0.64194-9.2177 4.7248-8.5273 9.877 1.3988 11.958 3.465 23.928 6.7949 35.508 1.4105 5.1926 6.7369 8.3226 11.973 7.5938 40.556-3.3971 81.05-8.1007 121.16-15.037 7.8603-1.3806 14.635-7.5503 15.893-15.562 1.4989-8.5848 0.49523-17.555-1.8125-25.902-1.9018-6.3398-9.1516-8.2356-15.044-7.8452l-0.62997 0.006-0.49006 0.005zm-73.08 13.064c4.6176-0.43261 10.038 2.2298 10.078 7.459 1.2678 8.1131 3.9628 16.597 1.7559 24.648-1.4979 4.6336-6.6845 5.1015-10.77 4.9334-12.973 0.42219-26.068 2.0487-38.958 1.7731-6.2272-0.15132-10.108-5.8504-10.964-11.484-1.1128-6.2207-2.919-12.513-3.4902-18.777 3.0231-2.181 7.5551-1.9431 11.148-3.1452 13.555-2.8142 27.445-4.8084 41.199-5.4075zm61.906 1.7715c5.9658 0.35062 14.315 3.584 14.549 10.695-0.68091 8.6689-12.294 13.232-18.953 7.7754-7.5883-4.6359-5.6176-19.004 4.4043-18.471zm-29.014 0.83789c10.19 1.2169 12.706 16.849 4.1621 21.916-4.8418 3.1096-12.219 0.73232-13.371-5.2598-2.1281-6.2841 1.5919-16.499 9.209-16.656zm72.908 33.799c-2.5118-0.34415-5.7632 1.0701-5.043 4.0938 1.1484 16.74 1.4591 33.558 2.9297 50.262 0.30268 4.4868 5.4911 7.2791 9.3359 4.8418 7.9759-4.5616 8.49-14.977 8.4293-23.145-0.17491-9.6695-0.52919-19.567-3.2809-28.887-1.9289-4.9459-7.3162-7.3395-12.371-7.166zm-171.52 8.6504c-2.6796 0.42378-3.7525 3.793-6.4258 4.5469-4.6757 2.8319-12.248 1.0816-14.965 6.8711-2.406 6.6692 0.96469 13.75 1.3704 20.486 2.0462 10.502 2.1798 22.803 10.145 30.932 3.4418 3.9746 11.295 3.7054 12.832-1.8965 1.3375-6.3525-1.7128-12.644-1.7724-19.018-1.3778-12.7-0.34171-25.537 1.9013-38.09 0.2016-1.8841-1.0568-3.8374-3.0859-3.832z" fill="#a0aad6"/>
<path id="path14" d="m520.16 134.78c-3.4871-0.53677-6.9414 3.0062-5.0508 6.4102 4.6849 7.8188 10.923 15.146 18.882 19.793 5.3616 2.7586 12.638 5.4743 18.2 1.8218 3.0452-2.0855 1.1484-6.5994-2.1022-7.2514-11.615-3.6503-15.806-18.513-28.224-20.637-0.5647-0.0809-1.1347-0.13055-1.7051-0.13672zm-298.46 105.75c-4.9285 0.76023-8.0328 5.4566-11.934 8.1624-8.8171 7.7536-17.456 18.142-17.289 30.511 0.11064 2.3443 1.3072 4.9158 3.7188 5.6133 7.5907-15.26 16.961-29.642 27.975-42.654-0.40532-1.0034-1.3762-1.6938-2.4707-1.6328zm222.4 79.41c-17.268 2.0431-32.103 13.359-42.81 26.518-6.3456 8.1603-12.39 16.803-16.55 26.287-0.64873 1.9979-0.41028 4.3047 0.95313 5.957 15.94-16.136 33.044-32.632 55.158-39.702 5.327-1.9988 12.885-4.5239 13.515-11.175 0.0959-5.1866-5.6338-8.2844-10.268-7.8848zm-149.5 12.18c-4.6123-0.3647-10.458 2.4966-9.8906 7.8301 0.56475 6.5842 7.5993 9.8692 13.527 9.8438 22.328-0.0814 45.75 9.1698 58.658 28.085 0.87762 1.702 2.5224 4.8254 4.713 2.8665 2.2882-2.9323-0.91103-6.6661-1.5038-9.7002-3.5309-10.562-9.6835-20.752-19.67-26.308-13.843-7.9506-29.93-12.045-45.834-12.617zm-32.029 85.348c-0.60732 7.8518 0.10962 17.754 7.8125 22.066 8.9829 4.7739 19.661 2.864 29.395 2.8424 11.232-0.76064 22.958-2.1272 32.98-7.5514 1.5067-0.89435 2.012-4.26-0.5625-3.4668-23.997-0.44541-45.981-11.645-69.596-14.584l-0.0266 0.62944-0.003 0.0639zm214.39 1.3027c-8.2523 1.4032-16.018 5.0399-24.094 7.2356-9.7627 3.3248-19.822 6.0103-29.434 9.6569-3.2934 3.0014-0.49457 8.7531 3.6582 9.1973 10.348 1.3372 21.104 0.87903 31.23-1.7582 9.9391-2.8251 19.909-9.5566 23.064-19.822 0.5079-2.6613-1.8039-4.7995-4.4258-4.5098zm0.39258 21.496c-5.4445 0.68815-9.1805 5.6854-14.412 6.9816-13.502 5.1948-28.228 4.0084-42.221 2.1356-0.90925 5.6542 5.6424 8.4019 10.195 9.0379 17.467 3.0185 37.073 0.1885 50.838-11.645 2.5002-2.9823-1.1604-6.7836-4.4004-6.5098zm-146.43 2.332c-21.194 4.2692-43.714 8.9206-64.785 1.6191-0.56216 7.5538 5.9704 14.26 13.447 14.371 11.461 0.22396 22.812-2.2107 34.219-3.1011 6.1846-1.2478 13.206-0.2249 18.763-3.6547 3.5003-2.1187 2.8027-8.972-1.6445-9.2344z" fill="#c22026"/>
<path id="path22" fill="#d8cf5f" d="m449.68 158.53c-0.35515-0.006-0.71367 0.016-1.0762 0.0723-4.1 0.6-6.2992 5.9008-4.6992 9.8008 1.8 3.8 6.4 5.6992 10.5 5.1992 5-0.7 9.5-4.5996 10.5-9.5996-5.3438 1.2188-9.8973-5.384-15.225-5.4727zm-194.48 13.47c-3 3.9-7.5996 6.7008-12.6 7.3008 1.3 3.9 2.7012 7.8988 5.7012 10.799 2.9 2.9 7.8992 4.1012 11.199 1.7012 2.8-2 3.5008-5.9012 2.8008-9.2012-0.8-3.3-2.7016-6.2-4.6016-9l-2.5-1.5996z"/>
<path id="path30" d="m420.67 101.89c-4.0095 0.27014-2.5738 5.7293-2.7969 8.2166 0.49159 2.4913-1.5955 7.6405 2.3945 7.3888 2.8507-0.27398 2.8355-4.3911 3.9127-6.5741 1.2891-3.3454 1.3745-8.9287-3.5104-9.0314zm12.234 3.541c-5.3553 0.59771-7.622 6.8694-8.4141 11.475-0.90504 6.7763 0.80755 13.802 2.502 20.139 3.6864 1.4518 5.0965-4.0735 6.6133-6.2422 3.3919-6.2675 8.7952-13.795 5.2402-21.17-1.1364-2.2283-3.3208-4.1926-5.9414-4.2012zm-164.42 3.209c-5.2759 0.0619-6.5748 7.1754-3.3047 10.457 2.0312 2.971 7.2156 2.83 8.1797-0.98047 1.3548-3.2395 1.3106-8.349-2.9297-9.2539-0.6312-0.17677-1.2904-0.25318-1.9453-0.22265zm-10.508 9.0762c-4.0596 0.44436-5.3759 5.3302-6.9316 8.4336-2.0375 4.7597 0.54702 11.472 6.2656 11.67 6.7034 1.0706 14.943-2.8563 16.471-9.8418 0.5103-3.8476-4.0545-4.5894-6.8906-4.4297-3.8765-0.38816-4.9691-5.6658-8.9141-5.832zm184.15 4.6309c-2.7031 1.5559-3.2456 5.5611-5.3203 7.8223-2.0019 4.6328-7.5838 8.8925-6.0625 14.484 1.0801 4.6869 7.9117 6.0467 10.406 1.7812 2.0141-4.5854 1.0694-10.009 2.1058-14.858-0.31911-2.8488 2.2002-7.0735-0.514-9.1908-0.19893-0.0535-0.41209-0.0872-0.61524-0.0391zm-187.1 18.193c-4.2181-0.33918-6.3616 4.6012-4.5859 7.998 1.8153 5.5331 9.89 6.3886 12.992 1.5684 2.6535-3.0599 0.62798-7.8104-3.1816-8.6699-1.6612-0.61691-3.4518-0.93603-5.2246-0.89648zm3.7207 14.951c-3.2331 0.11296-8.672 1.2472-8.291 5.4531 1.244 3.8377 6.169 2.7616 8.7832 1.1074 2.5629-1.0833 5.0586-2.5723 6.6816-4.8965-2.2254-1.1073-4.6788-1.7455-7.1738-1.6641z" fill="#515157"/>
</g>
<path id="path10" d="m346.25 45.064c-16.567-0.1938-33.278 5.6922-45.146 17.336-4.9 4.8-9.1 10.5-15 14.1-12.9 7.9-31.099 3.9-42.699 13.5-11.5 9.5-10.901 27.099-8.2012 41.699 2.8 14.6 6.2 31-2 43.4-5.9 8.9-16.499 13.4-24.799 20.1-20.5 16.7-25.7 46.2-23 72.5 1.8 17.2 10.3 37.701 27.6 38.701 9.5 0.5 18.399-5.6996 23.699-13.6 5.3-7.9 7.7-17.402 10-26.602 0.3 18.9 1.8012 40.502 16.701 52.102 4.7 3.6 10.2 5.8984 14.5 9.8984 4.3 4.1 6.8992 10.901 3.6992 15.801-24.7 38-29.399 88.2-12.199 130.1-10.8 2.4-21.601 5.9996-30.201 13.1-8.6 7.1-14.598 18-13.398 29 1.3 11 11.199 21.101 22.299 20.201 29.1-2.2 57.801-8.2996 85.301-18.1 8.8-3.2 19.4-10.9 15.5-19.4-14.3-31.3-13.101-69.2 3.2988-99.5 3.2-5.9 7.4008-12.001 13.801-14.301 11.5-4.2 23.4 5.5 30.5 15.5 19.7 27.6 26.8 63.9 18.9 96.9-1.6 6.6 2.9004 13.399 8.9004 16.699s12.999 3.8008 19.799 4.3008c24.8 1.8 49.7 3.5008 74.6 5.3008 12.2 0.8 23.1-10.8 23.5-23s-7.8992-23.701-18.699-29.301-23.699-6.1996-36.199-4.0996c3.7-44.2-11.2-87.7-26-129.6-3.8-10.8-9.1016-23.002-20.102-26.102 12-1.1 21-12.499 23.4-24.299s-0.2996-24.001-3.0996-35.701c20 5.4 41.4-5.9984 53.9-22.398s18.2-36.901 23.5-56.801c-8.7 16-17.3 32-26 48-4.2 7.6-8.6004 15.6-15.9 20.4-12.7 8.4-29.601 4.4988-44.301 0.29883-6.1-1.8-12.8-3.8984-16-9.3984-5.6-9.4 2.2016-23.001-4.3984-31.701-8.6-11.3-9.8-27.799-3-40.199 2-3.7 8.3984-6.5004 9.3984-2.4004-4.8 7-2.0996 17.9 5.4004 21.9s18-0.00039 21.1-7.9004c2.7-7 14.3-5.0008 17.5 1.6992s0.6016 14.7-2.3984 21.5c2.2-1.3 4.4992-2.4992 6.6992-3.6992-1.7 3-2.2008 6.7-1.3008 10 5.1-7.5 7.3004-16.799 6.4004-25.699 2.9 4.9 8.5012 7.9988 14.201 7.7988-0.6-4.3-3.7008-8.0996-7.8008-9.5996-5.9-2.1-6.7996-10.9-3.0996-16.1 0.2-0.3 0.3992-0.60039 0.6992-0.90039l-0.004-0.004c3.701-4.4899 9.6933-6.6878 15.287-8.6855 8.6 5.5 14.398 14.9 23.398 19.6s24 0.29961 23-9.9004c-0.2999-3.3-2.0996-7.3 0.4004-9.5 12.4-11.1 23.4-23.899 32.6-37.799 3.3-5.1 6.6-10.701 6.5-16.801s-4.6992-12.499-10.699-12.199c2.1-5.9-0.9-13.001-6.5-15.701-5.6-2.6-13.001-0.49922-16.301 4.8008 1.2-5.1-5.1984-9.1004-10.398-8.4004-5.2 0.7-9.6 4.1-14.5 6-9.8 3.7-15.602 15.5-12.602 25.5-3-6.3-7.6996-13.599-14.6-12.799-7.4 0.8-10.1 10.699-8 17.799s7.0996 13.2 8.5996 20.5c2.8 13.8-7.3992 25.9-18.199 35.6l0.004 0.004c-1.4 1.19-2.69 2.38-4.09 3.48-9.7 8.1-25.499-0.29961-30.199-12.1s-2.3016-25.001-2.1016-37.701-3.0988-27.2-14.299-33.1c-12-6.3-27.2 0.3-40-4-8.2-2.7-14.2-9.3004-21.1-14.4-10.369-7.6562-23.169-11.484-36.055-11.635zm-0.25 5.336c25.2 0.1 49.499 17.099 58.199 40.799 0.1 1.7-2.6 0.60117-3.5-0.79883-4.2-6.9-12.099-10.501-19.799-12.801-31.1-9.6-66.3-4.5988-93.4 13.201 8.9-23.6 33.3-40.5 58.5-40.4zm208.03 16.275c2.7016 0.05742 5.4035 2.5852 4.3535 5.0352-2.8 6.7-4 14.2-3.5 21.5 3.6-5.8 7.4992-11.401 11.699-16.701 2.4-3 5.2004-6 8.9004-6.5 3.8-0.5 7.8992 3.5008 6.1992 6.8008-2.4 4.6-4.8988 9.3-7.2988 14-1.2 2.4-1.6004 6.4992 1.0996 6.6992 2.8-1.8 4.5-4.8996 7-7.0996s6.8004-3.1996 8.9004-0.59961c1.7 2 0.9996 5 0.0996 7.5-7.2 19.3-23.601 33.5-39.301 46.9-1 0.9-1.9988 1.6992-3.2988 2.1992-2.7 1-5.9012-0.19922-8.2012-2.1992s-3.9004-4.6008-5.9004-6.8008c-3.6999-4.1-8.6996-7.0988-14.1-8.2988-0.8-0.2-1.2-1.2-1.5-2-3.2-10.3-6.4992-20.501-9.6992-30.801-0.8-2.6-1.4996-5.6008-0.0996-7.8008s5.9988-1.7996 5.7988 0.90039c-0.2 3.1 2 5.9012 4.5 7.7012s5.4997 2.8996 8.0996 4.5996c4.4001 2.9 7.6012 7.7004 8.7012 12.9 2.8-0.1 4.5-3.4016 4-6.1016-0.4-2.7-2.3011-4.9988-3.7012-7.2988-4.2999-6.8-5.4988-15.401-3.2988-23.201 0.3-1.3 0.8992-2.7 2.1992-3 2.5-0.6 3.3008 3.1016 3.3008 5.6016-0.1 5.7 1.2996 11.398 4.0996 16.398 0.3 0.5 0.5993 1.1004 1.1992 1.4004 1.2001 0.6 2.7001-0.60039 3-1.9004 0.3001-1.3-0.1996-2.7-0.5996-4-1.8-6.2-1.7-12.9 0.5-19 1-2.9 2.8012-5.8992 5.7012-6.6992 0.375-0.1 0.7606-0.14297 1.1465-0.13477zm-131.04 9.8672c9.1766 0.02461 18.89 1.3695 24.314 8.457 3.8 5 4.5 11.601 5 17.801 1.2 14.8 2.4992 29.7 3.6992 44.5 0.1 1.2 0.2 2.5996-0.5 3.5996-1.1 1.7-4 1.5988-5.5 0.29883s-2.1-3.5-2.5-5.5c-1.3-7.3-0.2004-14.7-0.4004-22.1s-1.9992-15.4-7.6992-20.1c-2.2-1.9-4.9-3.1008-7.5-4.3008l-23.1-10.5c-3.3-1.5-3.0012-6.8988-0.2012-9.2988s6.8-2.7008 10.5-2.8008c1.275-0.0375 2.5758-0.06016 3.8867-0.05664zm-72.059 0.68164c7.4532 0.09375 14.897 0.97578 22.172 2.6758 10.7 2.5 21.6 7.1988 27.9 16.299-1.6 2.2-4.9992 0.70117-7.1992-0.79883-13.2-8.7-29.602-11.5-45.102-10.5-15.8 1-31 5.5996-46 10.6-6.3 2.1-13.099 4.8008-15.799 10.801-3 6.7 0.4992 14.6-1.3008 21.6-0.4 1.5-1.4 3.1996-3 3.0996-1.5-0.1-2.2988-1.7992-2.7988-3.1992-2.2-6.3-4.3016-13.1-2.1016-19.4 1.7-4.9 5.9012-8.4996 10.201-11.6 18.225-13.05 40.668-19.857 63.027-19.576zm-69.906 6.7891c1.2344-0.02441 2.3906 0.24805 3.0781 1.1855 0.9 1.3 0.4008 3.0004-0.1992 4.4004-6.2 13.5-25.301 15.701-33.801 27.801-4.4 6.2-5.3004 14.199-4.9004 21.799 0.4 7.5 2.0012 15.002 2.2012 22.602 0.1 3.6-0.4996 7.7992-3.5996 9.6992-2.3-19.4-3.7016-38.9-4.1016-58.5-0.1-6.7 0.2016-14.3 5.1016-18.9 3.2-3.1 7.8-4.1 12.2-5.1 7.3-1.5 14.501-3.0992 21.801-4.6992 0.7125-0.15 1.4801-0.27246 2.2207-0.28711zm128.83 11.791c2.6597-0.20838 4.1718 3.4883 4.4531 6.3945 0.6 5.3 0.7996 10.7 0.5996 16-0.1 2.8-0.4 5.8016-2 8.1016-1.8 2.2-5.5008 2.9988-7.3008 0.79883-1.1-1.4-1.0004-3.3992-0.9004-5.1992 0.5-6.8 1.1016-13.501 1.6016-20.301 0.2-2.3 0.8-5.0992 3-5.6992 0.1875-0.05 0.3695-0.08181 0.5469-0.0957zm10.672 6.7539c1.128-0.12793 2.4551 0.44141 3.0801 1.4414 1 1.6 0.7008 3.7 0.3008 5.5-0.6 2.5-1.4996 5.0008-2.5996 7.3008-0.9 0.3-2.0008 0.19922-2.8008-0.30078v-10.699c0-0.8 0.0004-1.6012 0.4004-2.2012 0.3375-0.6375 0.9424-0.96426 1.6191-1.041zm12.404 3.4356c1.2209 0.0602 2.4145 0.61875 3.377 1.4062 2.6 2.3 3.4984 6.0996 2.8984 9.5996-0.6 3.4-2.3 6.6-4 9.5-1.4 2.6-2.8988 5.2008-4.2988 7.8008-0.7 1.4-2.2996 2.9996-3.5996 2.0996-0.9-4.7-2.1004-9.2996-2.4004-14.1-0.2-4.8 0.6-9.8016 3.5-13.602 1-1.3 2.4-2.4992 4-2.6992 0.175-0.0125 0.349-0.0144 0.5234-0.006zm-164.46 3.2227c2.4371-0.0685 5.0371 1.5074 5.0371 3.9824 0 3-0.8008 7.1004-3.8008 7.4004-1 0.1-1.9988-0.30039-2.7988-0.90039-3-1.9-3.9004-6.7988-1.4004-9.2988 0.7812-0.78125 1.8551-1.1525 2.9629-1.1836zm283.75 5.8242c-1.2758 0.002-2.6007 1.5508-3.332 2.7695-2.7 5.1-5.3 10.3-8 15.4-0.6 1.2-1.2012 2.3992-1.2012 3.6992s0.7997 2.7004 2.0996 2.9004c4.8-6.2 8.7016-13.1 11.602-20.4 0.6-1.4 0.9992-3.2996-0.3008-4.0996-0.2812-0.1875-0.5727-0.2699-0.8672-0.26953zm-294.21 3.41c2.9062 0.0374 4.4941 4.3262 7.4004 5.4512 2.3 0.9 5.4996-0.20078 7.0996 1.6992 1.3 1.5 0.6004 3.9-0.5996 5.5-3.2 4.6-9.1 7.0012-14.5 6.2012-1.4-0.2-2.8004-0.6-3.9004-1.5-2.1-1.6-2.7004-4.4-2.4004-7s1.6004-4.9016 2.9004-7.1016c0.8-1.4 1.8004-2.8992 3.4004-3.1992 0.2062-0.0375 0.4059-0.0533 0.5996-0.0508zm184.41 4.5137c0.6781 0.0807 0.9742 1.2617 0.8867 2.1367-0.6 6.4-1.3 12.7-2 19-0.2 2.8-3.4016 4.7996-6.1016 4.0996s-4.4996-3.5984-4.0996-6.3984c0.3-1.7 1.1996-3.2012 2.0996-4.7012 2.7-4.5 5.5012-8.9004 8.2012-13.4 0.2-0.3 0.3992-0.59922 0.6992-0.69922 0.1125-0.0375 0.2176-0.0486 0.3145-0.0371zm-23.648 2.2441c0.7782-0.0328 1.584 0.11719 2.334 0.49219-1.2 3.5 1.4996 8.2-1.4004 10.5-1.1 0.8-2.4992 0.9-3.6992 1-3.4 0-6.7996-0.29844-10.1-0.89844-0.3-2.6 3.4996-3.1008 6.0996-3.8008 3.2-0.9 5.7-3.8992 6-7.1992 0.25-0.05 0.5062-0.0828 0.7656-0.0937zm-129.17 0.59375c5.3 7.4 10.7 14.8 18.1 20.1 14.6 10.5 34.1 10.5 51.9 8.0996 15.8-2.1 33.001-6.7 41.801-20 1.9-0.1 1.7988 2.8996 0.7988 4.5996-9.8 16.7-28.999 26.901-48.199 27.701s-38.4-7.0016-53-19.602c-6.3-5.4-12.2-12.698-11.4-20.898zm230.58 9.5098c5.9 0.1 10.801 4.2996 14.701 8.5996 4 4.3 7.6996 9.2004 13.1 11.4 2 0.9 4.5996 1.7004 5.0996 3.9004 0.6 2.9-3.1996 4.6992-6.0996 4.6992-6.2 0.1-12.2-2.7-17.1-6.5s-8.8-8.6992-12.5-13.699c-1.5-1.9-2.9015-4.5996-1.6016-6.5996 0.9001-1.4 2.8004-1.8008 4.4004-1.8008zm-242.98 1.5898c2.6 0 5.1016-0.00039 7.6016 0.0996 1.7 0.1 3.5996 0.2 4.5996 1.5 1.1 1.3-0.0996 3.9008-1.5996 3.3008-4-1.5-8.7 0.0984-12 2.8984s-5.4 6.7-7.5 10.5c-1.3-5-0.4012-10.399 2.2988-14.799 0.8-1.3 1.8012-2.4996 3.2012-3.0996 1.1-0.4 2.2984-0.40039 3.3984-0.40039zm-21.535 4.252c0.5172 0.0172 1.0351 0.0734 1.5351 0.14844 3 0.4 6.6008 1.9 6.8008 5 0 0.8-0.2 1.6984-0.5 2.3984-1.3 3-4.9996 4.7012-8.0996 3.7012s-5.3012-4.5012-4.7012-7.7012c0.1-0.7 0.4004-1.4996 0.9004-2.0996 0.975-1.2 2.5129-1.4988 4.0645-1.4473zm157.94 1.0098c2.95-0.0875 5.9504 0.98828 7.9004 3.2383 3.5 4.2 3.1008 10.299 2.3008 15.699-1.1 8.1-2.5012 16.3-4.2012 24.4-0.4 1.7-0.9004 3.6992-2.4004 4.6992-1 0.7-2.3996 0.80078-3.5996 0.80078-5.6 0.2-11.199 0.3-16.799 0.5 2-12.3 4.0992-24.501 6.1992-36.801 0.5-3 1.1-6.2988 3-8.7988 1.75-2.4 4.6496-3.6508 7.5996-3.7383zm-126.13 5.2539c2.1018-0.0662 4.1731 0.42148 5.9356 1.584 5.4 3.5 5.9004 11.1 5.9004 17.6v17.6c0 5.1-0.2008 10.701-3.8008 14.301-4.4 4.3-11.5 3.5996-17.5 2.5996 1.1-5.5 0.2008-11.299-1.1992-16.799-1.3-5.5-3.0004-10.902-3.4004-16.602s0.7996-11.698 4.5996-15.898c2.375-2.625 5.9619-4.2744 9.4648-4.3848zm111.45 5.2559c0.1586-0.0001 0.3199 0.009 0.4824 0.0273l-6.5996 30c-0.5 2.5-1.2 5.2-3 7-2.2 2.1-5.4004 2.4016-8.4004 2.6016-23.6 1.7-47.201 3.3996-70.701 5.0996-1.4 0.2-3.0992 0.19922-4.1992-0.80078-1.1-0.9-1.2008-2.6-1.3008-4-0.5-12.3-0.8984-24.7-1.3984-37.1 13.5 8.7 28.898 15.201 44.898 16.301s32.901-3.9008 44.201-15.301c1.6875-1.7812 3.6379-3.8267 6.0176-3.8281zm-139.37 3.46c1.875 0.05 3.7492 0.47539 5.4492 1.2754-1.7 2.2-4.4004 3.4-6.9004 4.5-1.3 0.6-2.6004 1.0996-3.9004 1.0996-1.4-0.1-2.9-1.1-3-2.5-0.1-1.6 1.4004-2.8004 2.9004-3.4004 1.7-0.7 3.5762-1.0246 5.4512-0.97461zm190.22 2.3848c5.3166 0.0172 9.7871 6.709 15.225 5.4902-1.1 5-5.6004 8.8996-10.4 9.5996-4.2 0.5-8.8-1.3992-10.5-5.1992-1.8-3.8 0.4996-9.1008 4.5996-9.8008 0.3625-0.0625 0.7217-0.091 1.0762-0.0898zm-188.28 8c1.8625-0.025 3.8609 0.7 5.2109 2 2.7 2.6 3.4 6.6008 4 10.301 1.2 7.8 2.5008 15.7 3.8008 23.5 0.2 1.1 0.2992 2.3988-0.3008 3.2988-5.1 7.7-5.4988 18.3-0.7988 25.9 3.7 6.5-0.4012 14.7-5.7012 19.9-2.6 2.6-5.6984 4.9996-9.3984 5.5996s-8.0008-1.0996-9.3008-4.5996c-2.2-5.9 4.7992-11.501 5.1992-17.801 0-0.8 0-1.7004-0.5-2.4004-1.8-2.7-6.1996 0.40117-6.5996 3.7012-0.5 3.3 0.3004 7.2004-2.0996 9.4004-3.1 2.9-8.2008 0.0988-10.801-3.2012-2.6-3.3-4.9992-7.5992-9.1992-8.1992-3.1-0.4-6 1.3992-8.5 3.1992-9.7 7.2-17.901 16.4-23.801 26.9-2.4-11.2-2.3988-22.899-0.2988-34.199 0.8-4.5 2.0992-9.1004 5.1992-12.4 3.1-3.3 8.4008-5.0008 12.301-2.8008 1.8 1.1 3.1988 2.9008 4.7988 4.3008s3.9004 2.4988 5.9004 1.7988 2.8004-4 0.9004-5c-4.1-2.1-8.3004-4.1988-12.4-6.2988-0.8-0.4-1.7996-1.0004-2.0996-1.9004-0.3-1.1 0.3992-2.2992 1.1992-3.1992 5.6-6.8 12.101-12.9 19.301-17.9 1.7-1.2 3.7008-2.3996 5.8008-2.5996 3.8-0.3 6.9996 2.7 9.5996 5.5 3.9 4.2 7.6996 8.2984 11.6 12.398 5.1-3.9 10.7-8.3 12.4-14.5s-2.7012-14.399-9.2012-13.699c2 2.8 3.9012 5.7 4.7012 9 0.7 3.3-0.1008 7.1992-2.8008 9.1992-3.3 2.4-8.2992 1.2008-11.199-1.6992-2.9-2.9-4.3012-6.9008-5.7012-10.801 4.9-0.6 9.5016-3.3988 12.602-7.2988 0.7-0.9 1.2988-1.9004 1.7988-2.9004 0.8-1.7 2.5262-2.475 4.3887-2.5zm151.21 29c4.7 0 9.8016 0.10039 13.102 3.4004 2.6 2.6 3.2984 6.5988 3.8984 10.299 1.6 10.6 2.5008 23.202-5.6992 30.102-4.3 3.6-10.1 4.5984-15.6 5.3984-37.3 6-74.701 10.501-112.3 13.701-3.3 0.3-6.8992 0.49922-9.6992-1.3008-3.3-2.1-4.5004-6.2-5.4004-10-2.1-9.2-3.8992-18.399-5.1992-27.799-0.3-2.8-0.6012-5.9008 0.7988-8.3008 1.9-3.2 6.0012-4.0992 9.7012-4.6992 41.8-6.6 84.098-10.201 126.4-10.801zm-72.111 12.074c-1.2875-0.05-2.5887 0.025-3.8887 0.125-16.2 1.1-32.198 3.6-47.898 7.5-0.8 0.2-1.6 0.50156-2 1.1016-0.4 0.6-0.3016 1.3992-0.1016 2.1992 1 4.9 1.9004 9.7992 2.9004 14.699 0.9 4.4 2 9.2 5.5 12 3.6 2.9 8.8004 2.8 13.4 2.5 11.3-0.6 22.7-1.2984 34.1-1.8984 2.2-0.1 4.4008-0.30039 6.3008-1.4004 4.1-2.5 4.4004-8.2 3.9004-13-0.6-6.2-1.6-12.2-3-18.1-0.6-2.5-2.9004-4.3016-5.4004-5.1016-1.25-0.4-2.525-0.575-3.8125-0.625zm60.356 1.6172c-0.8655 0.0234-1.718 0.1457-2.543 0.4082-6.1 1.7-8.4 10.301-5 15.701 2.3 3.8 6.6996 6.1996 11.1 6.0996 4.4-0.1 8.7004-2.7 10.9-6.5 0.7-1.4 1.2988-2.9004 1.2988-4.4004 0.2-5.7-5.8984-9.5008-11.398-10.801-1.4375-0.3125-2.9151-0.54688-4.3574-0.50781zm-29.191 0.82226c-0.6483 0.0363-1.3012 0.16172-1.9512 0.38672-1.6 0.6-2.9 1.7004-4 2.9004-3.3 3.8-4.6016 9.2992-3.1016 14.199 0.5 1.6 1.2004 3.2004 2.4004 4.4004 3.4 3.6 9.7004 3.3996 13.4 0.0996 3.7-3.3 4.8004-8.8996 3.4004-13.6-1.3125-4.55-5.6108-8.641-10.148-8.3867zm-34.158 2.25c1.8183-0.0205 3.5683 0.23633 5.0058 1.2363 2.1 1.5 3.0008 4.0004 3.8008 6.4004 1.1 3.3 2.1988 6.5996 2.2988 10.1 0.1 3.5-1.0984 7.0992-3.8984 9.1992-3.3 2.5-7.9 2.2012-12 1.7012-9.4-0.5-18.901-0.30078-28.301 0.69922-4.3 0.5-8.3004-2.9004-9.9004-6.9004s-1.4988-8.4988-1.2988-12.799c0.1-1.1 0.2-2.4012 1-3.2012 0.6-0.6 1.6-0.79844 2.5-0.89844 12.4-2 25-3.7008 37.5-5.3008 1.0875-0.1125 2.2019-0.22402 3.293-0.23633zm67.127 2.0391c1.2314 0.054 2.4473 0.41016 3.4785 1.0977 1.7 1.2 3.0012 3.3988 2.2012 5.2988-0.4 0.9-1.2004 1.6008-1.9004 2.3008-1.4 1.1-2.8 2.2992-4.5 2.6992-3.8 0.8-7.3008-4.0992-5.8008-7.6992 1.0313-2.475 3.8123-3.816 6.5215-3.6973zm-32.627 1.668c2.5552-0.12168 5.0058 2.5039 5.0058 5.1289 0 3.1-2.0996 5.7-4.5996 7.5-0.7 0.5-1.5004 1.0012-2.4004 0.70117-0.8-0.1-1.3988-0.90156-1.7988-1.6016-1.5-2.7-1.5016-6.0988-0.1016-8.7988 0.6-1.1 1.6008-2.2012 2.8008-2.7012 0.3625-0.1375 0.7287-0.21113 1.0938-0.22852zm-150.32 25.141c0.7231-0.001 1.3516 0.27578 1.7266 0.98828-10.81 12.8-20.11 26.9-27.51 41.9-2.5-1-3.0008-4.2004-2.8008-6.9004 0.7-7.2 4.2004-14 8.9004-19.6 4.6-5.6 10.3-10.201 16-14.801 1-0.8125 2.4688-1.5859 3.6738-1.5879zm223.87 4.0547c4.0933-0.10118 8.2816 1.3098 10.557 4.6348 1.4 2.1 2.0004 4.6992 2.4004 7.1992 1.4 8.7 2.1004 17.5 1.9004 26.4-0.2 6.5-1.0992 13.699-5.6992 18.199-2.1 1.9-5.4004 3.2012-7.9004 1.7012-2.6-1.6-3.0012-5-3.2012-8-0.9-15.6-1.7-31.101-2.5-46.701-0.1-0.8-0.0996-1.6988 0.4004-2.2988 0.5-0.7 1.5008-0.9 2.3008-1 0.575-0.075 1.1574-0.12031 1.7422-0.13476zm-17.56 0.34c2.5693-0.0693 5.0058 0.46289 6.5058 2.4004 1.1 1.4 1.3996 3.2996 1.5996 5.0996 2.2 16 3.1008 32.2 2.8008 48.4-0.1 6.7-1.3 14.599-7.5 17.299-21 9.3-38.301 26.701-47.301 47.801-1.8 4.2-3.4992 8.8-7.1992 11.5s-10.2 1.9-11.4-2.5c-2.7876-10.254-8.4504-19.418-16-26.801l-0.006-0.006c-0.0317-0.0309-0.0621-0.0629-0.0938-0.0937l-0.004 0.004c-13.295-12.939-32.242-20.397-50.695-18.303-0.6 0.1-1.3004 0.0996-1.9004 0.0996l-0.0996 2.4004c11.7 0.7 23.2 3.2988 34 7.7988 6.1 2.6 11.999 5.8008 16.799 10.301l0.004-0.004c0.6649 0.57933 1.3264 1.2392 1.8965 1.9043 6 6.6 9.0004 15.299 11.9 23.699 0.3 0.9 0.5988 1.9004 0.2988 2.9004-0.4 1-1.5984 1.6-2.3984 1-11.3-19.2-33.8-30.1-56-31.1-4.4-0.2-9.1-0.10117-13-2.2012s-6.5-7.3996-4-11.1c2.1-3.2 6.5984-3.5008 10.398-3.3008l0.1016-2.3984c-4.2-0.3-8.2012-3.2008-10.701-6.8008-2.8-4.1-3.9988-9.1996-4.7988-14.1-2.2-12.7-2.9012-25.501-2.2012-38.301 0.2-3.2 1.3-7.3004 4.5-7.4004 47-2.2 93.8-8.0996 139.9-17.6 1.4625-0.3 3.0521-0.55801 4.5938-0.59961zm-198.09 2.6c6 0.1 10 5.9012 12.9 11.201-1.6 2.9-5.7004 3.7996-8.9004 2.5996-2.6-1-5.4996-3.0008-7.5996-1.3008-1.9 1.5-0.7012 4.7996 1.2988 6.0996 2.1 1.3 4.6004 1.5004 6.9004 2.4004s4.4012 3.2 3.7012 5.5c-0.6 1.9-2.9008 2.8008-4.8008 2.8008-2 0-3.9008-0.90078-5.8008-1.3008-1.8-0.4-3.7996-0.49922-5.5996-0.19922-1.5 2.6 1.5008 5.6 4.3008 6.5s6.1992 1.3004 7.6992 3.9004c1.6 2.8-0.8992 6.9988-4.1992 6.7988s-6.0012-3.8996-9.2012-3.0996c-1.6 2-0.9988 5.4008 1.2012 6.8008 2.1 1.3 0.8 4.8992-1.5 5.6992s-4.8996-0.30078-7.0996-1.3008c-2.3-1.1-4.6004-2.0992-6.9004-3.1992-1.7-0.8-3.5008-1.5996-4.8008-3.0996-3.5-4-1.2988-10.2 1.2012-14.9 4.3-8 9.1996-15.8 14.6-23.1 3.1-4.3 7.2996-8.9008 12.6-8.8008zm43.881 5.5977c0.7998 0.0371 1.6445 0.55273 2.0195 1.3027 0.6 1.2 0.3996 2.7 0.0996 4-2.9 15.4-3 31.501 0 46.801 0.7 3.6 1.2992 7.9-1.3008 10.5-1.9 1.9-4.9984 2.1-7.3984 1-2.5-1-4.3012-3.1004-5.7012-5.4004-3.6-5.8-4.8004-12.8-5.9004-19.6-1-6.2-2-12.501-3-18.701-0.6-3.7-1-7.8996 1.5-10.6 2.4-2.6 6.6016-2.6 10.102-3.5 3.2-0.8 6.1988-2.7008 8.2988-5.3008 0.3375-0.375 0.8014-0.52422 1.2813-0.50195zm111.19 16.473c-1.625 0.0303-3.25 0.2793-4.875 0.5293-1.8 2.8-1.2988 6.5008-0.7988 9.8008 0.7 3.9 1.3 7.9008 2 11.801 0.7 4.2 2.3004 9.1984 6.4004 9.8984 3.6-1 4.6-5.5988 5-9.2988 0.5-4.4 0.8988-8.8008 1.2988-13.301 0.1-1.5 0.3008-3.0996-0.1992-4.5996-0.8-2.5-3.3004-4.0996-5.9004-4.5996-0.975-0.1875-1.9508-0.24863-2.9258-0.23047zm-48.031 2.0078c-1.1625 0.0469-2.2676 0.34727-2.6426 1.3223-0.2 0.6-0.1996 1.0992-0.0996 1.6992 0.8 7.1 1.7 14.101 2.5 21.201 0.2 1.9 0.4984 4.0004 1.8984 5.4004 2.5 2.5 7.1 1 9-2 1.8-3 1.7016-6.8008 1.6016-10.301-0.2-4.5-0.4-9.0992-0.5-13.699-0.1-0.6-0.1004-1.2012-0.4004-1.7012-0.5-1-1.8004-1.1988-2.9004-1.2988-2.5-0.2-4.9008-0.40156-7.3008-0.60156-0.375-0.025-0.7687-0.0371-1.1562-0.0215zm65.914 35.109c-0.6875-0.025-1.3816-0.0113-2.0566 0.0137-14.4 0.4-28.901 1.4984-43.201 3.3984-7.3 1-14.699 2.2012-21.699 4.7012 0.2 2.3-0.2004 4.4992 0.0996 6.6992s1.4996 4.5012 3.5996 5.2012c1.5 0.5 3.1012 0.0992 4.7012-0.30078 17.3-4.4 35.3-4.6004 53-6.4004 3.3-0.3 6.6988-0.79883 9.2988-2.7988s3.8016-6.2016 1.6016-8.6016c-1.275-1.425-3.2813-1.8371-5.3438-1.9121zm41.83 13.271c1.0852 0.01 2.1629 0.14141 3.2129 0.44141 2.8 0.8 5.3992 3.1 5.6992 6 0.5 4.5-4.0992 7.7-8.1992 9.5-4 1.7-8.0996 3.0992-12.1 4.6992-18.6 7.7-33.3 22.3-47.6 36.5-1.7-2.5-0.3008-5.9 1.1992-8.5 5.9-10.7 12.701-21 21.301-29.6 8.6-8.7 19.2-15.499 31.1-18.299 1.75-0.4375 3.5781-0.75879 5.3867-0.74219zm9.5137 20.041c9.7 20.2 17.9 41.1 24.5 62.5 1.7 5.6-5.1016 9.9004-10.602 11.9-11.3 4-22.598 8.0996-33.898 12.1-4.1 1.4-8.5016 2.9-12.602 1.5-5.3-1.8-7.8988-7.5996-10.299-12.6-5-10.6-11.8-20.2-19.9-28.6-2.8-2.9-2.0996-7.9 0.4004-11 2.6-3.1 6.3996-4.8004 10.1-6.4004-0.8 6.3 5.2004 11.9 11.4 13 6.2 1.2 12.6-0.90039 18.6-2.9004 4.5-1.6 9.0996-3.0996 13.6-4.5996 3.8-1.3 7.9004-2.7992 9.9004-6.1992 5.1-8.5-6.7992-20.501-1.1992-28.701zm-9.7754 1.2617c0.225 0.0203 0.4488 0.0637 0.6738 0.13867 1.7 0.6 2.3012 2.6004 2.7012 4.4004 0.9 4.1 1.7992 8.0992 2.6992 12.199 0.6 2.8 1.2004 6.0012-0.5996 8.2012-1 1.3-2.5996 1.9-4.0996 2.5-5.5 2.2-11.101 4.0988-16.701 5.7988-4.3 1.3-8.7992 2.3996-13.199 1.5996-4.4-0.8-8.6008-4.2988-8.8008-8.7988-0.2-5 4.3008-8.6996 8.3008-11.6 8.3-5.9 17-11.901 27-14.201 0.675-0.15 1.3504-0.29922 2.0254-0.23828zm-156.83 10.035c0.5561 0.0522 1.0992 0.27188 1.6055 0.70313 1.6 1.3 1.3996 3.8012 0.5996 5.7012s-2.1996 3.5996-2.5996 5.5996c-1.1 5.4 4.6 9.5996 9.5 12.1 6.7 3.4 13.3 6.9008 20 10.301 4.3 2.2 9.3988 4.5 13.799 2.5 3.8-1.7 5.7-5.9004 8-9.4004s6.6004-6.7 10.4-5c1.6 0.7 2.8004 2.3004 3.4004 3.9004 1.9 4.9-0.2004 10.499-2.4004 15.299-3.8 8.4-7.7004 16.8-11.9 25.1-1.3 2.7-2.8004 5.6016-5.4004 7.1016-3.4 2-7.6996 1.0992-11.6 0.19922-15.3-3.7-30.7-7.3996-46-11.1-4.3-1-9.2992-2.4996-11.199-6.5996-1.6-3.4-0.5008-7.4 0.6992-11 4.6-13.7 10.201-27.102 16.701-40.102 1.3-2.6 3.9846-5.529 6.3945-5.3027zm152.72 1.5117c-0.6135 0.0475-1.1762 0.33008-1.5137 0.89258l-0.3008-0.20117c-1.7 2.2-2.1996 5.4996-1.0996 8.0996 1.6-0.6 3.3-1.3 4.5-2.5 1.2-1.3 1.8996-3.2988 1.0996-4.7988-0.5-1-1.6631-1.5713-2.6855-1.4922zm-137.74 0.88477c0.4457-0.01 0.8887-0.005 1.3262 0.008 10.4 0.2 20.7 2.7996 30 7.5996 1.7 0.9 3.4996 1.8996 4.5996 3.5996s1.2008 4.1-0.1992 5.5c-3.9 3.9-5.1008 11.001-10.301 12.301-2.8 0.7-5.5996-0.60039-8.0996-1.9004-5.4-2.7-10.7-5.3996-16.1-8.0996-3.1-1.6-6.3996-3.2-8.5996-6s-2.9008-7.0008-0.8008-9.8008c1.8375-2.45 5.0539-3.14 8.1738-3.207zm121.86 4.2051c-0.4198 0.014-0.8367 0.13984-1.2304 0.40234-2.6 2.9-1.8004 8 1.5996 10 1.6-1.9 3.2988-3.9004 3.2988-6.4004 0-2.0312-1.8484-4.0626-3.668-4.002zm-114.1 0.88476c-2.0111-0.0287-3.9347 1.5805-4.6347 3.418-0.9 2.2-0.7 4.7-0.5 7 4.6-0.5 7.9-6.1008 6-10.301-0.2875-0.075-0.5779-0.11309-0.8653-0.11719zm15.346 5.3496c-1.2187 0.0984-2.3804 0.94336-2.9804 2.0684-1 1.4-1.2 3.0988-1.5 4.7988-0.1 0.6-0.2 1.2012 0 1.7012 0.5 1.5 2.8 1.6 4 0.5 1.2-1.2 1.4992-2.9 1.6992-4.5v-4.4004c-0.4-0.15-0.8125-0.20078-1.2188-0.16797zm-62.582 52.668c23.7 3.1 46.202 14.6 70.102 14.6 0.5 1.5-1.1 2.7008-2.5 3.3008-13.5 5.9-28.7 6.6992-43.4 6.6992-7.3 0-15.501-0.59961-20.301-6.0996-4.2-4.9-4.2004-12-3.9004-18.5zm214.25 1.9121c1.25 0.0625 2.3512 0.48789 2.9512 1.5879 0.8 1.4 0.2996 3.1-0.4004 4.5-3.9 8.3-12.1 13.999-20.9 16.699-8.7 2.7-17.999 2.7996-27.199 2.5996-2.8-0.1-5.8004-0.29922-7.9004-2.1992s-2.1004-6.1004 0.5996-6.9004c16.3-5.2 32.7-10.499 49-15.699 1.2-0.35 2.5996-0.65039 3.8496-0.58789zm-0.0488 21.588c2.5-0.1 5.2004 2.2 4.4004 4.5-0.3 1-1.2 1.5988-2 2.2988-13.8 10.5-32.4 13.1-49.4 10-4.3-0.7-9.5996-3.2996-9.0996-7.5996 16.8 2.3 35.198 3.2004 49.398-6.0996 2.1-1.4 4.2012-2.9996 6.7012-3.0996zm-146.44 2.25c2.7452 0.0531 4.2168 4.5059 2.4356 6.8496-2 2.6-5.5012 3.1-8.7012 3.5-12 1.3-23.898 2.7-35.898 4-5.4 0.6-11.2 1.2004-15.9-1.5996-3.7-2.3-6.2012-6.5004-6.2012-10.9 20.4 6.8 42.701 2.5992 63.701-1.8008 0.1937-0.0375 0.3814-0.0524 0.5644-0.0488zm150.98 12.107c0.2852 0.004 0.5719 0.018 0.8594 0.043 2.1 8.2 1.3996 17.098-1.9004 24.898-1.6 4.1-4.0008 7.9004-4.3008 12.4-0.1 2.4 0.3004 5.1-1.0996 7-1.4 1.8-4.1004 2.2008-6.4004 2.3008-12.4 0.6-24.8-1.3012-36.4-5.7012-3.8-1.4-7.8996-3.3992-9.5996-7.1992-1.3-2.8-0.9992-6-0.6992-9 0.4-4.3 0.7992-8.5008 1.1992-12.801 0.2-2.7 1.7008-6.3 4.3008-5.5 13.6 4.2 28.799 3.3 41.799-2.5 3.9375-1.7812 7.9641-4.0004 12.242-3.9414zm-154.05 3.9668c0.8625 0 1.7137 0.12461 2.5137 0.47461 2.5 1.1 3.2988 4.2004 3.7988 6.9004 1.2 6.2 2.3 12.3 3.5 18.4 0.5 2.5 1.0008 5.1 0.3008 7.5-1.5 5.5-7.7008 7.9-13.301 9.5-8.4 2.5-16.799 4.9004-25.199 7.4004-1.3 0.4-2.7 0.8-4 0.5s-2.5008-1.5004-2.3008-2.9004c1.4-8.3-2.3984-17.2-9.3984-21.9-2.1-1.4-4.3016-2.3996-6.1016-4.0996-4.7-4.4-4.5-11.7-4-18.1 17.2 0.2 34.502-0.90039 51.602-3.4004 0.85-0.15 1.7234-0.27539 2.5859-0.27539zm176.25 12.727c11.54 0.0232 23.014 5.798 29.664 15.248 2.7 3.8 0.1996 9.6004-3.9004 11.9-4.1 2.3-9.1012 2.3012-13.701 2.2012-9.2-0.3-18.4-0.50078-27.6-0.80078-2.3-0.1-4.8988-0.29961-6.2988-2.0996-1.5-1.9-0.9012-4.6996-0.2012-7.0996 1.8-6.2 4-12.9 9.5-16.4 2.3-1.5 4.8996-2.1996 7.5996-2.5996 1.6375-0.2375 3.2889-0.35293 4.9375-0.34961zm-242.24 10.842c6.6245 0.058 13.246 2.3141 18.402 6.5078 4.1 3.4 7.3984 8.2 7.3984 13.5s-4.3 10.7-9.5 10.6c-11.9-0.3-23.799-0.50117-35.699-0.70117-3.5 0-7.8996-0.7-9.0996-4-0.6-1.5-0.2008-3.1992 0.1992-4.6992 2.6-9.3 10.2-17 19.4-19.9 2.875-0.90625 5.8873-1.333 8.8984-1.3066zm160.5 13.807c11.5 5.3 23.3 10.7 35.9 11.4 10.8 0.6 21.399-2.2004 32.199-2.4004 7.7-0.2 15.3 1 23 1 7.3 0 14.5-1.0992 21.5-3.1992 2.8 3.2 1.0996 8.6-2.4004 11-3.4 2.4-7.8992 2.6996-12.199 2.5996-27.4 0.9-55 0.10039-82.1-4.5996-4.3-0.7-8.8012-1.6008-12.201-4.3008-3.5-2.6-5.5992-7.6-3.6992-11.5zm-81.211 4.4219c0.8859 0.009 1.7613 0.15352 2.6113 0.47852-1 7.1-8.7 11-15.5 13.5-11.9 4.1-23.901 7.4-36.201 10-14.4 3-29.099 4.9-43.799 4.5-3.8-0.1-7.8008-0.50078-10.801-2.8008-3-2.4-4.1008-7.3984-1.3008-9.8984 32.8 4.7 66.802-0.1 97.102-13.5 2.475-1.125 5.2308-2.3074 7.8887-2.2793z" fill="#010101"/>
</g>
</g>
</svg>
